<?xml version="1.0" encoding="utf-8"?>
<!-- Generator: Adobe Illustrator 24.3.0, SVG Export Plug-In . SVG Version: 6.00 Build 0)  -->
<!DOCTYPE svg PUBLIC "-//W3C//DTD SVG 1.1//EN" "http://www.w3.org/Graphics/SVG/1.1/DTD/svg11.dtd" [
	<!ENTITY ns_extend "http://ns.adobe.com/Extensibility/1.0/">
	<!ENTITY ns_ai "http://ns.adobe.com/AdobeIllustrator/10.0/">
	<!ENTITY ns_graphs "http://ns.adobe.com/Graphs/1.0/">
	<!ENTITY ns_vars "http://ns.adobe.com/Variables/1.0/">
	<!ENTITY ns_imrep "http://ns.adobe.com/ImageReplacement/1.0/">
	<!ENTITY ns_sfw "http://ns.adobe.com/SaveForWeb/1.0/">
	<!ENTITY ns_custom "http://ns.adobe.com/GenericCustomNamespace/1.0/">
	<!ENTITY ns_adobe_xpath "http://ns.adobe.com/XPath/1.0/">
]>
<svg version="1.1" id="Capa_1" xmlns:x="&ns_extend;" xmlns:i="&ns_ai;" xmlns:graph="&ns_graphs;"
	 xmlns="http://www.w3.org/2000/svg" xmlns:xlink="http://www.w3.org/1999/xlink" x="0px" y="0px" width="750px" height="137px"
	 viewBox="0 0 750 137" style="enable-background:new 0 0 750 137;" xml:space="preserve">
<metadata>
	<sfw  xmlns="&ns_sfw;">
		<slices></slices>
		<sliceSourceBounds  bottomLeftOrigin="true" height="129.84" width="613.25" x="51.66" y="2.2"></sliceSourceBounds>
	</sfw>
</metadata>
<g>
	<path d="M76.78,124.56c-3.35,0-6.63-1.05-9.85-3.15c-4.2-3.15-6.3-7-6.3-11.53c0-0.92,0.3-3.07,0.89-6.45
		c0.59-3.38,3.15-8.13,7.68-14.24c4.53-6.11,9.6-11.53,15.22-16.25s10.52-7.95,14.73-9.65c2.1-7.22,3.84-14.32,5.22-21.28
		c1.38-6.96,2.07-12.77,2.07-17.44c0-4.66-1.05-7.16-3.15-7.49c-2.76,0.26-6.8,4.19-12.12,11.77S81.12,45.02,76.98,54.61
		c-3.42,7.95-5.12,14.71-5.12,20.29c0,1.18,0.06,2.3,0.2,3.35c-11.03-2.89-17.5-7.45-19.41-13.69c-0.66-2.03-0.98-4.1-0.98-6.21
		c0-4.4,1.71-9.62,5.12-15.66c3.41-6.04,8.59-12.08,15.52-18.13c6.93-6.04,13.71-10.41,20.34-13.1c7.09-2.63,13.07-3.94,17.93-3.94
		c3.48,0,7.22,1.12,11.23,3.35c5.25,2.89,7.88,10.18,7.88,21.87c0,5.78-0.79,11.89-2.36,18.32c12.87-11.43,23.61-26.8,32.21-46.1
		c1.58,0.53,3.89,2.02,6.95,4.48c3.05,2.46,5.63,5.3,7.73,8.52c1.38,2.04,2.07,3.97,2.07,5.81c0,0.92-0.2,1.84-0.59,2.76
		c-3.09,5.39-7.72,11.12-13.89,17.19c-6.17,6.08-13.04,12.43-20.59,19.06l-11.53,10.44c-0.26,0.99-0.39,2.04-0.39,3.15
		c0,3.02,1.28,6.78,3.84,11.28c2.56,4.5,6.62,8.83,12.17,13c5.55,4.17,11.77,6.72,18.67,7.63v0.39c0,1.58-1.58,3.43-4.73,5.57
		c-3.15,2.13-6.8,3.92-10.94,5.37c-2.82,0.99-5.22,1.48-7.19,1.48c-0.92,0-1.74-0.1-2.46-0.3c-4.99-2.1-9.54-6.44-13.64-13
		c-4.1-6.57-7.18-13.99-9.21-22.26c-2.96,6.7-5.35,11.76-7.19,15.17c-2.56,4.33-6.14,8.73-10.74,13.2
		c-4.6,4.46-9.62,7.65-15.07,9.56C80.76,124.2,78.75,124.56,76.78,124.56z M71.37,116.87c2.36,0,6.11-3.37,11.23-10.1
		c5.12-6.73,9.95-17.49,14.48-32.26c-3.55,1.38-7.21,4.17-10.98,8.37c-3.78,4.2-7.18,8.82-10.2,13.84
		c-3.02,5.02-5.09,9.47-6.21,13.35c-0.39,1.44-0.59,2.66-0.59,3.64c0,1.64,0.56,2.66,1.67,3.05L71.37,116.87z"/>
	<path d="M175.2,108.6c-1.18,0-2.71-0.38-4.58-1.13c-1.87-0.75-3.3-1.89-4.29-3.4c-2.89-4.73-4.33-10.51-4.33-17.34
		c0-0.26,0.05-2.28,0.15-6.06c0.1-3.78,1.05-9.23,2.86-16.35c1.81-7.13,3.69-12.92,5.66-17.39c1.38-3.02,3.81-4.86,7.29-5.52
		c1.51-0.26,3.05-0.39,4.63-0.39c2.03,0,4.53,0.33,7.49,0.99c2.96,0.66,5.65,1.81,8.08,3.45c-6.24,7.29-11.33,17.93-15.27,31.92
		l2.76-5.42c1.84-3.61,4.32-7.78,7.44-12.51c3.12-4.73,6.67-9,10.64-12.81c3.97-3.81,8.16-6.14,12.56-6.99h1.08
		c3.35,0,5.71,1.41,7.09,4.24c1.12,2.36,1.67,5.16,1.67,8.37c0,1.12-0.15,3.15-0.44,6.11c-0.3,2.96-1.49,6.49-3.6,10.59
		c-2.1,4.11-4.73,6.88-7.88,8.32c-0.99,0.46-1.97,0.69-2.96,0.69c-2.43,0-4.99-1.18-7.68-3.55c3.87-2.96,5.81-6.3,5.81-10.05
		c0-2.76-0.95-4.24-2.86-4.43c-1.64,0-4.32,2.22-8.03,6.65c-3.71,4.43-7.39,10.28-11.03,17.54c-3.65,7.26-6.19,15.09-7.63,23.5
		C178.25,108.27,176.71,108.6,175.2,108.6z"/>
	<path d="M239.73,108.11h-0.39c-5.58-0.59-9.33-3.09-11.23-7.49c-1.44-3.35-2.17-7.22-2.17-11.62c0-1.58,0.21-4.4,0.64-8.47
		c0.43-4.07,1.69-9.52,3.79-16.35c2.1-6.83,4.33-12.97,6.7-18.42c1.51-2.96,3.97-4.79,7.39-5.52c1.64-0.33,3.32-0.49,5.02-0.49
		c1.84,0,4.19,0.31,7.04,0.94c2.86,0.62,5.5,1.76,7.93,3.4c-1.97,2.69-4.29,6.83-6.95,12.41c-2.66,5.58-5.12,11.49-7.39,17.73
		c-2.27,6.24-3.86,11.62-4.78,16.16c-0.33,1.77-0.49,3.22-0.49,4.33c0,2.1,0.59,3.15,1.77,3.15c1.97,0,4.24-1.41,6.8-4.24
		c3.55-4.07,7.81-10.61,12.81-19.6c0.79-1.64,1.35-2.46,1.67-2.46c0.26,0,0.43,0.36,0.49,1.08c-0.46,5.39-2.27,10.84-5.42,16.35
		c-3.15,5.52-6.85,10.08-11.08,13.69C247.66,106.3,243.6,108.11,239.73,108.11z M259.92,36.09c-1.12,0-2.36-0.1-3.74-0.3
		c-7.23-0.79-10.84-3.32-10.84-7.59c0-2.82,1.12-5.71,3.35-8.67c1.84-2.43,4.93-3.65,9.26-3.65h1.28c5.06,0.59,8.47,1.61,10.25,3.05
		c1.44,1.12,2.17,2.63,2.17,4.53l-0.1,1.38c-0.33,4.86-2.23,8.21-5.71,10.05C264.39,35.7,262.42,36.09,259.92,36.09z"/>
	<path d="M275.98,107.81c-4.93,0-8.87-1.05-11.82-3.15c-4.2-2.96-6.3-7.06-6.3-12.31c0-3.87,1.08-7.09,3.25-9.65
		c0.92-1.12,1.94-1.71,3.05-1.77c0.92,0.07,1.38,0.46,1.38,1.18c0,0.79-0.17,1.74-0.49,2.86c-0.39,1.45-0.59,2.66-0.59,3.65
		c0,2.3,1.05,4.2,3.15,5.71c2.43,1.64,5.38,2.46,8.87,2.46c2.82,0,5.19-0.56,7.09-1.67c1.44-0.85,2.17-2.04,2.17-3.55
		c0-0.72-0.34-1.95-1.03-3.69c-0.69-1.74-4.06-4.63-10.1-8.67c-6.04-4.04-9.52-8.59-10.44-13.64c-0.2-1.18-0.3-2.33-0.3-3.45
		c0-3.81,1.33-7.7,3.99-11.67c2.66-3.97,6.85-7.11,12.56-9.41c3.61-1.51,7.52-2.27,11.72-2.27c2.43,0,4.99,0.26,7.68,0.79
		c4.79,1.31,7.68,3.91,8.67,7.78c0.33,1.45,0.49,2.89,0.49,4.33c0,2.3-0.59,4.89-1.77,7.78c-1.18,2.89-2.99,4.6-5.42,5.12
		c-0.13-2.56-1.54-4.89-4.24-6.99c-3.09-2.36-6.17-3.55-9.26-3.55c-2.69,0-4.53,1.41-5.52,4.24l-0.1,0.69
		c0,1.25,0.64,2.43,1.92,3.55c1.28,1.12,3.07,2.33,5.37,3.65c3.35,1.91,6.57,4.35,9.65,7.34c3.09,2.99,4.83,7.04,5.22,12.17v0.69
		c0,6.11-2.5,11.21-7.49,15.32C292.37,105.76,285.24,107.81,275.98,107.81z"/>
	<path d="M323.07,108.11h-0.39c-6.17-0.72-9.95-4.27-11.33-10.64c-0.72-3.02-1.08-6.34-1.08-9.95c0-4,0.61-9.44,1.82-16.3
		c1.21-6.86,3.2-14.73,5.96-23.59h-6.21l3.15-7.98h5.62c3.15-8.87,5.55-15.3,7.19-19.31c1.44-2.96,3.87-4.79,7.29-5.52
		c1.58-0.33,3.15-0.49,4.73-0.49c1.97,0,4.4,0.33,7.29,0.98c2.89,0.66,5.52,1.77,7.88,3.35c-1.97,2.89-5.26,9.89-9.85,20.98h7.98
		l-3.15,7.98h-7.98c-7.09,18.39-11.53,32.31-13.3,41.77c-0.39,2.04-0.59,3.71-0.59,5.02c0,2.3,0.62,3.45,1.87,3.45
		c2.17,0,4.71-1.64,7.64-4.93c2.92-3.28,5.68-7.01,8.27-11.18c2.59-4.17,4.38-7.17,5.37-9.01c0.39-0.79,0.72-1.18,0.99-1.18
		c0.39,0,0.59,0.36,0.59,1.08c-0.46,5.39-2.35,10.84-5.66,16.35c-3.32,5.52-7.19,10.08-11.62,13.69
		C331.1,106.3,326.94,108.11,323.07,108.11z"/>
	<path d="M366.32,106.73c-5.25,0-9.39-1.64-12.41-4.93c-4.4-4.79-6.6-11.69-6.6-20.69c0-2.69,0.34-6.21,1.03-10.54
		c0.69-4.33,2.38-9.1,5.07-14.28c2.69-5.19,6.17-9.42,10.44-12.71c4.27-3.28,9.23-5.02,14.88-5.22c7.36,0.07,12.84,2.36,16.45,6.9
		c3.81,4.99,5.71,11.26,5.71,18.82c0,6.24-1.28,12.61-3.84,19.11c-2.56,6.5-6.47,12.04-11.72,16.6
		C380.08,104.35,373.74,106.66,366.32,106.73z M371.93,98.35c2.69,0,5.32-1.56,7.88-4.68c2.56-3.12,4.79-6.95,6.7-11.48
		c2.96-7.16,4.43-13.56,4.43-19.21c0-6.17-1.91-9.26-5.71-9.26c-2.23,0-4.5,1.64-6.8,4.93c-2.1,3.02-3.99,6.72-5.66,11.08
		c-1.67,4.37-2.91,8.75-3.69,13.15c-0.59,3.15-0.89,5.91-0.89,8.28c0,0.92,0.11,2.35,0.34,4.29
		C368.76,97.38,369.9,98.35,371.93,98.35z"/>
	<path d="M389.86,134.8c-1.12,0-2.87-0.15-5.27-0.44c-2.4-0.29-5.04-1.3-7.93-3c-2.89-1.71-4.73-4.53-5.52-8.47
		c2.82,2.04,5.48,3.05,7.98,3.05c2.56,0,5.5-1.58,8.82-4.73c3.32-3.15,6.63-9.16,9.95-18.03c3.32-8.87,6.12-18.26,8.42-28.17
		c1.71-7.42,3.68-16.65,5.91-27.68c0.79-2.96,2.82-5.02,6.11-6.21c2.3-0.79,4.66-1.18,7.09-1.18c1.18,0,3.02,0.18,5.52,0.54
		c2.5,0.36,4.89,1.56,7.19,3.6c-0.79,2.04-1.58,4.4-2.36,7.09c2.69-3.55,5.48-6.42,8.37-8.62c2.89-2.2,5.62-3.3,8.18-3.3
		c10.05,0.39,15.07,6.67,15.07,18.82c0,4.93-0.59,10.16-1.77,15.71c-1.18,5.55-3.14,10.69-5.86,15.42
		c-2.73,4.73-6.16,8.59-10.29,11.58c-4.14,2.99-8.9,4.48-14.29,4.48c-7.68,0-12.22-2.56-13.59-7.68
		c-8.47,22.92-18.49,35.3-30.05,37.14C391.14,134.77,390.59,134.8,389.86,134.8z M429.27,97.86c2.36-0.26,4.68-2.27,6.95-6.01
		c2.27-3.74,4.19-8.18,5.76-13.3c2.1-7.22,3.15-13.13,3.15-17.73c0-1.18-0.13-2.64-0.39-4.38c-0.26-1.74-1.28-2.61-3.05-2.61
		c-2.04,0-4.17,1.94-6.4,5.81c-2.23,3.88-4.2,8.44-5.91,13.69c-0.26,1.12-0.56,2.1-0.89,2.96v0.2c-1.77,6.5-2.66,11.79-2.66,15.86
		C425.82,96.02,426.97,97.86,429.27,97.86z"/>
	<path d="M485.32,108.5c-1.58,0-3.51-0.49-5.81-1.48c-5.78-2.43-8.67-8.6-8.67-18.52c0-0.99,0.13-3.68,0.39-8.08
		c0.26-4.4,1.53-10.98,3.79-19.75c2.27-8.77,4.69-16.8,7.29-24.09c2.59-7.29,4.65-12.67,6.16-16.16c1.38-2.96,3.78-4.79,7.19-5.52
		c1.64-0.33,3.32-0.49,5.02-0.49c1.84,0,4.19,0.31,7.04,0.94c2.86,0.62,5.5,1.72,7.93,3.3c-1.64,2.3-4.3,7.82-7.98,16.55
		c-3.68,8.74-7.29,18.29-10.84,28.67c-3.55,10.38-5.85,19.15-6.9,26.3l0.29-0.49c0.72-1.51,2.45-4.73,5.17-9.65
		c2.72-4.93,6.06-10.34,10-16.26s8.13-11.16,12.56-15.76c4.43-4.6,8.68-7.39,12.76-8.37l1.67-0.1c3.35,0,6.34,1.25,8.96,3.74
		c1.97,1.91,2.96,4.04,2.96,6.4c0,1.31-0.3,2.66-0.89,4.04c-2.69,5.58-5.3,11.71-7.83,18.37c-2.53,6.67-4.35,12.5-5.47,17.49
		c-0.46,2.1-0.69,3.81-0.69,5.12c0,2.1,0.59,3.15,1.77,3.15c2.04,0,4.33-1.41,6.9-4.24c4.07-4.53,8.34-11.07,12.81-19.6
		c0.85-1.64,1.41-2.46,1.67-2.46c0.33,0,0.49,0.36,0.49,1.08c-0.53,5.39-2.33,10.84-5.42,16.35c-3.09,5.52-6.75,10.08-10.98,13.69
		c-4.24,3.61-8.29,5.42-12.17,5.42h-0.39c-5.58-0.59-9.33-3.05-11.23-7.39c-1.45-3.28-2.17-7.19-2.17-11.72
		c0-1.38,0.18-4.04,0.54-7.98c0.36-3.94,1.59-9.29,3.69-16.06c-4.4,5.98-8.52,12.33-12.36,19.06c-3.84,6.73-7.04,12.5-9.61,17.29
		l-3.45,6.31C488.18,108.2,486.77,108.5,485.32,108.5z"/>
	<path d="M572.12,106.83c-2.89,0-6.32-0.54-10.29-1.63c-3.97-1.08-7.37-3.86-10.2-8.32c-2.63-4.6-3.94-10.18-3.94-16.75
		c0-3.81,0.54-8.03,1.63-12.66c1.08-4.63,2.97-9.21,5.66-13.74c2.69-4.53,6.07-8.23,10.15-11.08c4.07-2.86,8.73-4.29,13.99-4.29
		c4.6,0,8.42,1.12,11.48,3.35c3.05,2.23,5.17,5.06,6.35,8.47c0.72,2.04,1.08,4.1,1.08,6.21c0,1.45-0.17,2.92-0.49,4.43
		c-1.71,6.57-4.53,11.03-8.47,13.4c-3.55,2.1-6.99,3.15-10.34,3.15c-0.33,0-1.51-0.06-3.55-0.2c-2.04-0.13-3.55-0.85-4.53-2.17
		c-0.92,3.55-1.38,6.86-1.38,9.95c0,1.58,0.25,3.84,0.74,6.8c0.49,2.96,2.68,5.06,6.55,6.3c0.66,0.2,1.38,0.3,2.17,0.3
		c1.9,0,4.35-0.62,7.34-1.87c2.99-1.25,5.93-3.78,8.82-7.58c3.61-5.38,6.44-10.05,8.47-13.99c0.66-1.12,1.15-1.95,1.48-2.51
		c0.33-0.56,0.59-0.84,0.79-0.84c0.33,0,0.49,0.36,0.49,1.08c-0.46,5.32-2.23,10.64-5.32,15.96c-2.23,4.01-4.83,7.46-7.78,10.34
		c-3.74,3.48-8.31,5.85-13.69,7.09C576.88,106.56,574.48,106.83,572.12,106.83z M574.68,70.08c3.74,0,6.76-0.75,9.06-2.27
		c3.28-2.03,4.93-4.99,4.93-8.87c0-1.05-0.25-2.25-0.74-3.6c-0.49-1.35-1.43-2.05-2.81-2.12c-1.91,0.26-3.88,1.58-5.91,3.94
		c-2.04,2.36-3.84,5.39-5.42,9.06c-0.59,1.18-1.08,2.43-1.48,3.74L574.68,70.08z"/>
	<path d="M613.98,108.6c-1.18,0-2.71-0.38-4.58-1.13c-1.87-0.75-3.3-1.89-4.29-3.4c-2.89-4.73-4.33-10.51-4.33-17.34
		c0-0.26,0.05-2.28,0.15-6.06c0.1-3.78,1.05-9.23,2.86-16.35c1.81-7.13,3.69-12.92,5.67-17.39c1.38-3.02,3.81-4.86,7.29-5.52
		c1.51-0.26,3.05-0.39,4.63-0.39c2.04,0,4.53,0.33,7.49,0.99c2.96,0.66,5.65,1.81,8.08,3.45c-6.24,7.29-11.33,17.93-15.27,31.92
		l2.76-5.42c1.84-3.61,4.32-7.78,7.44-12.51c3.12-4.73,6.67-9,10.64-12.81c3.97-3.81,8.16-6.14,12.56-6.99h1.08
		c3.35,0,5.71,1.41,7.09,4.24c1.12,2.36,1.67,5.16,1.67,8.37c0,1.12-0.15,3.15-0.44,6.11c-0.3,2.96-1.5,6.49-3.6,10.59
		c-2.1,4.11-4.73,6.88-7.88,8.32c-0.98,0.46-1.97,0.69-2.96,0.69c-2.43,0-4.99-1.18-7.68-3.55c3.87-2.96,5.81-6.3,5.81-10.05
		c0-2.76-0.95-4.24-2.86-4.43c-1.64,0-4.32,2.22-8.03,6.65c-3.71,4.43-7.39,10.28-11.03,17.54c-3.65,7.26-6.19,15.09-7.63,23.5
		C617.04,108.27,615.49,108.6,613.98,108.6z"/>
</g>
</svg>
