<?xml version="1.0" encoding="utf-8"?>
<!-- Generator: Adobe Illustrator 24.3.0, SVG Export Plug-In . SVG Version: 6.00 Build 0)  -->
<svg version="1.1" id="Capa_1" xmlns="http://www.w3.org/2000/svg" xmlns:xlink="http://www.w3.org/1999/xlink" x="0px" y="0px"
	 viewBox="0 0 463.76 472.94" style="enable-background:new 0 0 463.76 472.94;" xml:space="preserve">
<style type="text/css">
	.st0{fill:#FFFFFF;}
	.st1{fill:#1E1B1B;}
</style>
<g>
	<path class="st0" d="M36.4,251.25c0.35-31.51,3.26-62.72,10.87-93.38c3.32-13.37,7.52-26.46,13.4-38.96
		c0.68-1.45,1.36-2.91,2.05-4.36c8.98-18.7,22.92-32.34,41.63-41.33c15.18-7.3,31.04-12.46,47.39-16.24
		c20.15-4.67,40.57-7.36,61.21-8.73c13.98-0.93,27.96-1.26,41.94-0.74c27.34,1.02,54.4,4.17,80.72,12.1
		c9.68,2.92,19.03,6.63,28.05,11.24c15.41,7.88,27.03,19.43,35.02,34.81c7.12,13.72,12.26,28.14,16.19,43.03
		c4.81,18.21,7.89,36.73,9.92,55.45c2.43,22.4,3.16,44.84,2.19,67.32c-1.15,26.64-4.45,52.99-12.11,78.65
		c-3.02,10.13-6.9,19.91-11.79,29.3c-7.99,15.35-19.7,26.86-35.07,34.79c-12.51,6.45-25.7,10.99-39.31,14.36
		c-18.52,4.59-37.35,7.15-56.37,8.51c-14.43,1.03-28.87,1.41-43.32,0.93c-33.8-1.12-67.2-5.08-99.73-14.8
		c-12.55-3.75-24.67-8.51-36.24-14.75c-14.4-7.77-25.13-18.98-32.69-33.4c-7.4-14.12-12.28-29.13-15.77-44.61
		c-3.94-17.48-6.26-35.19-7.28-53.09C36.81,268.67,36.34,259.97,36.4,251.25z"/>
	<path d="M142.27,258.26c0-33.24,0.04-66.49-0.04-99.73c-0.01-5.36,0.58-10.55,2.77-15.43c5.7-12.75,15.4-20.65,29.41-21.65
		c11.64-0.83,23.37-0.3,35.06-0.35c1.57-0.01,2.6,0.71,2.63,2.43c0.02,1.6,0.04,3.21,0.04,4.81c0,65.8,0,131.6,0,197.39
		c0,3.67-0.12,7.31-0.76,10.95c-3.01,17.05-17.67,27.95-30.86,28.92c-5.02,0.37-10.07,0.41-15.11,0.46
		c-6.88,0.06-13.76,0.01-20.63-0.04c-1.62-0.01-2.49-0.87-2.49-2.55c0.01-1.83-0.02-3.67-0.02-5.5
		C142.27,324.75,142.27,291.51,142.27,258.26z"/>
	<path d="M300.04,179.06c7.79,0,15.59-0.03,23.38,0.02c2.44,0.01,2.96,0.78,2.07,2.87c-1.27,2.94-2.6,5.86-3.95,8.77
		c-8.38,18.08-16.65,36.22-25.19,54.23c-7.15,15.07-19.51,22.88-35.95,23.54c-13.5,0.55-27.04,0.12-40.56,0.12
		c-0.46,0-0.92-0.03-1.37-0.07c-1.29-0.13-2.06-1.21-1.66-2.37c0.3-0.86,0.69-1.7,1.07-2.53c9.73-20.99,19.47-41.98,29.2-62.97
		c2.34-5.05,5.33-9.59,9.66-13.2c6.38-5.32,13.6-8.39,21.99-8.41C285.83,179.05,292.93,179.06,300.04,179.06z"/>
	<path class="st1" d="M325.85,365.75c-1.02,0.14-1.7,0.32-2.37,0.32c-13.99,0.01-27.98,0.05-41.97-0.03
		c-3.89-0.02-7.78-0.33-11.56-1.49c-10.47-3.22-17.98-9.85-22.62-19.71c-4.49-9.54-8.84-19.14-13.27-28.71
		c-5.1-11.02-10.21-22.04-15.31-33.06c-0.67-1.45-1.37-2.9-1.9-4.41c-0.34-0.98,0.16-1.81,1.2-2.01c0.89-0.17,1.83-0.14,2.74-0.14
		c13.07,0,26.14-0.04,39.22,0.02c11.89,0.06,21.82,4.61,29.82,13.38c2.96,3.24,5.14,6.99,6.98,10.98
		c9.21,19.98,18.49,39.93,27.72,59.89C325.17,362.19,326.23,363.49,325.85,365.75z"/>
</g>
</svg>
